<?xml version="1.0" standalone="no"?><!DOCTYPE svg PUBLIC "-//W3C//DTD SVG 1.1//EN" "http://www.w3.org/Graphics/SVG/1.1/DTD/svg11.dtd"><svg t="1586234737149" class="icon" viewBox="0 0 1024 1024" version="1.1" xmlns="http://www.w3.org/2000/svg" p-id="1598" xmlns:xlink="http://www.w3.org/1999/xlink" width="200" height="200"><defs><style type="text/css">@font-face { font-family: mindzip; src: url("chrome-extension://cmkhjlckcaeahimgmlnihmphjkcccopm/fonts/mindzip.eot?#iefix") format("embedded-opentype"), url("chrome-extension://cmkhjlckcaeahimgmlnihmphjkcccopm/fonts/mindzip.woff") format("woff"), url("chrome-extension://cmkhjlckcaeahimgmlnihmphjkcccopm/fonts/mindzip.ttf") format("truetype"), url("chrome-extension://cmkhjlckcaeahimgmlnihmphjkcccopm/fonts/mindzip.svg#mindzip") format("svg"); font-weight: normal; font-style: normal; }
@font-face { font-family: mindzip-icons; src: url("chrome-extension://cmkhjlckcaeahimgmlnihmphjkcccopm/fonts/MZ-iconFont.eot?#iefix") format("embedded-opentype"), url("chrome-extension://cmkhjlckcaeahimgmlnihmphjkcccopm/fonts/MZ-iconFont.woff") format("woff"), url("chrome-extension://cmkhjlckcaeahimgmlnihmphjkcccopm/fonts/MZ-iconFont.ttf") format("truetype"), url("chrome-extension://cmkhjlckcaeahimgmlnihmphjkcccopm/fonts/MZ-iconFont.svg#mindzip") format("svg"); font-weight: normal; font-style: normal; }
*, p, div { user-select: auto !important; }
</style></defs><path d="M113 489.5C113 268.9 291.6 90 512 90s399 178.9 399 399.5S732.4 889 512 889 113 710.1 113 489.5z" fill="#333F50" p-id="1599"></path><path d="M679.8 484v1.6l-0.2 1.6-0.5 1.5-0.7 1.4-0.9 1.3-1.1 1.1-1.2 0.9-1.4 0.7-1.5 0.5-1.6 0.3h-1.6l-1.6-0.2-1.5-0.5-1.4-0.7-1.3-0.9-1.1-1.1-0.9-1.2-0.8-1.4-0.5-1.5-0.3-1.6-0.1-1.2-0.1-1.2-0.1-1.2-0.1-1.2-0.1-1.2-0.1-1.2-0.1-1.2-0.1-1.2-0.1-1.2-0.1-1.2-0.1-1.2-0.1-1.2-0.1-1.2-0.1-1.2-0.1-1.2-0.1-1.2-0.1-1.2-0.1-1.2-0.1-1.2-0.1-1.2-0.1-1.2-0.1-1.2-0.1-1.2-0.1-1.2-0.1-1.2-0.1-1.2-0.1-1.2-0.1-1.2-0.1-1.2-0.1-1.2-0.1-1.2-0.1-1.2-0.1-1.2-0.1-1.2-0.1-1.2-0.1-1.2-0.1-1.2-0.1-1.2-0.1-1.2-0.1-1.2-0.1-1.2-0.1-1.1-0.1-1.1-0.1-1.1-0.1-1.1V406.9l0.1-1.1 0.1-1.1 0.1-1.1 0.1-1.1 0.1-1.1 0.1-1 0.1-1 0.1-1 0.1-1 0.1-1 0.1-1 0.1-1 0.1-1 0.1-1 0.1-1 0.1-1 0.2-1 0.2-1 0.2-1 0.2-1 0.2-1 0.2-1 0.2-1 0.2-1 0.2-1 0.2-1 0.2-0.9 0.2-0.9 0.2-0.9 0.3-0.9 0.5-1.8 0.3-1.1 0.3-1 0.4-1 0.4-1 0.4-1 0.4-0.9 0.4-0.9 0.4-0.9 0.5-0.9 0.5-0.9 0.5-0.9 0.5-0.8 0.5-0.8 0.5-0.8 0.5-0.8 0.5-0.8 0.6-0.8 0.6-0.7 0.6-0.7 0.6-0.7 0.6-0.7 0.6-0.7 0.6-0.7 0.6-0.7 0.6-0.6 0.6-0.6 0.6-0.6 0.6-0.6 0.6-0.6 0.6-0.6 0.6-0.6 0.6-0.6 0.6-0.6 0.6-0.5 0.6-0.5 0.6-0.5 0.6-0.5 0.6-0.5 0.6-0.5 0.6-0.5 0.6-0.5 0.6-0.5 0.6-0.5 0.6-0.5 0.6-0.5 0.6-0.5 0.6-0.5 0.6-0.5 0.6-0.5 0.6-0.4 0.6-0.4 0.6-0.4 0.6-0.4 0.6-0.4 0.6-0.4 0.6-0.4 0.6-0.4 0.6-0.4 0.6-0.4 0.6-0.4 0.5-0.4 0.5-0.4 0.5-0.4 0.5-0.4 0.5-0.4 0.5-0.4 0.5-0.4 0.5-0.4 0.5-0.4 0.5-0.4 0.5-0.4 0.4-0.4 0.4-0.4 0.4-0.4 0.4-0.4 0.4-0.4 0.4-0.4 0.4-0.4 0.4-0.4 0.4-0.4 0.4-0.4 0.3-0.4 0.3-0.5 0.3-0.5 0.3-0.5 0.3-0.5 0.3-0.5 0.3-0.5 0.3-0.5 0.3-0.5 0.3-0.5 0.3-0.5 0.2-0.5 0.2-0.5 0.2-0.5 0.2-0.5 0.2-0.6 0.2-0.6 0.4-1.3 0.2-0.7 0.2-0.7 0.2-0.7 0.2-0.7 0.2-0.7 0.2-0.8 0.2-0.8 0.2-0.8 0.1-0.8 0.1-0.8 0.1-0.8 0.1-0.8 0.1-0.8 0.1-0.8 0.1-0.8 0.1-0.8 0.1-0.8 0.1-0.9 0.1-0.9 0.1-0.9 0.1-0.9 0.1-0.9 0.1-0.9 0.1-0.9 0.1-0.9v-20.3l-0.1-1-0.1-1-0.1-1-0.1-1-0.1-1-0.1-1-0.1-1.1-0.1-1.1-0.1-1.1-0.1-1.1-0.1-1.1-0.1-1.1-0.1-1.1-0.1-1.1-0.1-1.1-0.1-1.1-0.1-1.1-0.1-1.1-0.1-1.1-0.1-1.1-0.1-1.1-0.1-1.1-0.1-1.1-0.1-1.1-0.1-1.1-0.1-1.1-0.1-1.1-0.1-1.1-0.1-1.1-0.1-1.1-0.1-1.1-0.1-1.1-0.1-1.1-0.1-1.1-0.1-1.1-0.2-1.1-0.2-1.1-0.2-1.1-0.2-1.1-0.2-1.1-0.2-1.2-0.2-1.2-0.2-1.2-0.2-1.2-0.2-1.2-0.2-1.2-0.2-1.2-0.2-1.2-0.2-1.2-0.2-1.2-0.2-1.2-0.2-1.2-0.3-2.3 0.1-3.2 1-2.9 1.9-2.4 2.5-1.8 3.1-0.9 3.2 0.1 2.9 1 2.5 1.8 1.8 2.5 1 3.1 0.3 2.3 0.2 1.2 0.2 1.2 0.2 1.2 0.2 1.2 0.2 1.2 0.2 1.2 0.2 1.2 0.2 1.2 0.2 1.2 0.2 1.2 0.2 1.2 0.2 1.2 0.2 1.2 0.2 1.2 0.2 1.2 0.2 1.2 0.2 1.2 0.2 1.2 0.2 1.2 0.1 1.2 0.1 1.2 0.1 1.2 0.1 1.2 0.1 1.2 0.1 1.2 0.1 1.2 0.1 1.2 0.1 1.1 0.1 1.2 0.1 1.1 0.1 1.1 0.1 1.1 0.1 1.1 0.1 1.1 0.1 1.1 0.1 1.1 0.1 1.1 0.1 1.1 0.1 1.1 0.1 1.1 0.1 1.1 0.1 1.1 0.1 1.1 0.1 1.1 0.1 1.1 0.1 1.1 0.1 1.1 0.1 1.1 0.1 1.1 0.1 1.1 0.1 1.1 0.1 1.1 0.1 1.1v20.4l-0.1 1-0.1 1-0.1 1-0.1 1-0.1 1-0.1 1-0.1 1-0.1 1-0.1 1-0.1 1-0.1 1-0.1 1-0.1 1-0.1 1-0.2 1-0.2 1-0.2 1-0.2 1-0.2 1-0.2 0.9-0.2 0.9-0.2 0.9-0.2 0.9-0.2 0.9-0.2 0.9-0.3 1-0.6 1.9-0.3 1-0.3 1-0.4 1-0.4 0.9-0.4 0.9-0.4 0.9-0.4 0.9-0.5 0.9-0.5 0.9-0.5 0.8-0.5 0.8-0.5 0.8-0.5 0.8-0.5 0.8-0.5 0.8-0.6 0.7-0.6 0.7-0.6 0.7-0.6 0.7-0.6 0.7-0.6 0.7-0.6 0.7-0.6 0.6-0.6 0.6-0.6 0.6-0.6 0.6-0.6 0.6-0.6 0.6-0.6 0.6-0.6 0.6-0.6 0.6-0.6 0.6-0.6 0.5-0.6 0.5-0.6 0.5-0.6 0.5-0.6 0.5-0.6 0.5-0.6 0.5-0.6 0.5-0.6 0.5-0.6 0.5-0.6 0.5-0.6 0.5-0.6 0.5-0.6 0.5-0.6 0.5-0.6 0.5-0.6 0.4-0.6 0.4-0.6 0.4-0.6 0.4-0.6 0.4-0.6 0.4-0.6 0.4-0.6 0.4-0.6 0.4-0.6 0.4-0.6 0.4-0.5 0.4-0.5 0.4-0.5 0.4-0.5 0.4-0.5 0.4-0.5 0.4-0.5 0.4-0.5 0.4-0.5 0.4-0.5 0.4-0.5 0.4-0.5 0.4-0.4 0.4-0.4 0.4-0.4 0.4-0.4 0.4-0.4 0.5-0.4 0.5-0.4 0.5-0.4 0.5-0.4 0.5-0.4 0.5-0.3 0.5-0.3 0.5-0.3 0.5-0.3 0.5-0.3 0.5-0.3 0.5-0.3 0.5-0.3 0.5-0.3 0.5-0.3 0.5-0.2 0.5-0.2 0.5-0.2 0.6-0.2 0.6-0.2 0.6-0.2 0.6-0.2 0.5-0.4 1.5-0.2 0.7-0.2 0.7-0.2 0.8-0.2 0.8-0.2 0.8-0.2 0.8-0.2 0.8-0.2 0.8-0.2 0.8-0.1 0.8-0.1 0.8-0.1 0.8-0.1 0.8-0.1 0.8-0.1 0.9-0.1 0.9-0.1 0.9-0.1 0.9-0.1 0.9-0.1 0.9-0.1 0.9-0.1 0.9-0.1 0.9-0.1 0.9-0.1 0.9-0.1 0.9-0.1 0.9-0.1 1-0.1 1V433.3l0.1 1.1 0.1 1.1 0.1 1.1 0.1 1.1 0.1 1.1 0.1 1.1 0.1 1.1 0.1 1.1 0.1 1.1 0.1 1.1 0.1 1.1 0.1 1.1 0.1 1.1 0.1 1.1 0.1 1.1 0.1 1.1 0.1 1.1 0.1 1.1 0.1 1.1 0.1 1.2 0.1 1.2 0.1 1.2 0.1 1.2 0.1 1.2 0.1 1.2 0.1 1.2 0.1 1.2 0.1 1.2 0.1 1.2 0.1 1.2 0.1 1.2 0.1 1.2 0.1 1.2 0.1 1.2 0.1 1.2 0.1 1.2 0.1 1.2 0.1 1.2 0.1 1.2 0.1 1.2 0.1 1.2 0.1 1.2 0.1 1.2v1z" fill="#E6E5E5" p-id="1600"></path><path d="M333.2 483h328.6c22.8 0 41.2 18.5 41.2 41.3v322.2l-15.7 8.1C635 879.9 576.3 894 514.4 894c-68.8 0-133.6-17.5-190.1-48.2L292 826.2V524.3c0-22.8 18.5-41.3 41.2-41.3z" fill="#FACC7E" p-id="1601"></path><path d="M537.7 624H550.3l4.2 0.1 4.2 0.1 4.2 0.1 4.2 0.1 4.1 0.1 4.1 0.2 4.1 0.2 4.1 0.2 4.1 0.2 4 0.2 4 0.2 4 0.3 4 0.3 3.9 0.3 3.9 0.3 3.9 0.3 3.8 0.4 3.8 0.4 3.8 0.4 3.7 0.4 3.7 0.5 3.7 0.5 3.6 0.5 3.6 0.5 3.6 0.5 3.5 0.6 3.5 0.6 3.4 0.6 3.4 0.6 3.4 0.7 3.3 0.7 3.3 0.7 3.2 0.7 3.2 0.8 3.1 0.8 3.1 0.8 3.1 0.9 5.7 1.8 3.1 1 2.8 1 2.8 1 2.8 1.1 2.7 1.1 2.7 1.1 2.7 1.2 2.6 1.2 2.6 1.2 2.6 1.3 2.5 1.3 2.5 1.3 2.5 1.4 2.4 1.4 2.4 1.4 2.4 1.4 2.3 1.5 2.3 1.5 2.3 1.5 2.2 1.6 2.2 1.6 2.2 1.6 2.1 1.6 2.1 1.7 2.1 1.7 2 1.7 2 1.7 2 1.7 1.9 1.8 1.9 1.8 1.9 1.8 1.8 1.8 1.8 1.9 1.8 1.9 1.7 1.9 1.7 1.9 1.7 1.9 1.7 1.9 1.6 2 1.6 2 1.6 2 1.5 2 1.5 2 1.5 2 1.5 2 1.4 2 1.4 2.1 1.4 2.1 1.3 2.1 1.3 2.1 1.3 2.1 1.3 2.1 1.2 2.1 1.2 2.1 1.2 2.1 1.2 2.1 1.2 2.1 1.1 2.1 1.1 2.1 1.1 2.1 1.1 2.1 1.1 2.2 1 2.2 1 2.2 1 2.2 1 2.2 0.7 1.5-16.8 18.4c-9 9-18.5 17.6-28.4 25.7l-9.7 7.2-0.3-0.9-0.7-1.9-0.7-1.9-0.7-1.9-0.7-1.8-0.7-1.8-0.7-1.8-0.7-1.8-0.8-1.8-0.8-1.8-0.8-1.8-0.8-1.7-0.8-1.7-0.8-1.7-0.8-1.7-0.8-1.7-0.8-1.7-0.8-1.7-0.8-1.6-0.8-1.6-0.8-1.6-0.8-1.6-0.9-1.6-0.9-1.5-0.9-1.5-0.9-1.5-0.9-1.5-0.9-1.5-0.9-1.5-0.9-1.4-0.9-1.4-0.9-1.4-1-1.4-1-1.4-1-1.4-1-1.3-1-1.3-1-1.3-1-1.3-1-1.3-1-1.3-1.1-1.2-1.1-1.2-1.1-1.2-1.1-1.2-1.1-1.2-1.1-1.2-1.1-1.1-1.2-1.1-1.2-1.1-1.2-1.1-1.2-1.1-1.2-1.1-1.3-1-1.3-1-1.3-1-1.3-1-1.3-1-1.4-1-1.4-0.9-1.4-0.9-1.4-0.9-1.4-0.9-1.5-0.9-1.5-0.9-1.5-0.9-1.5-0.8-1.6-0.8-1.6-0.8-1.6-0.8-1.7-0.8-1.7-0.8-1.7-0.7-1.8-0.7-0.7-0.3 0.9 9.1V858l-9.7 4.7C624.5 882.8 571.9 894 516.8 894c-55.2 0-107.7-11.2-155.5-31.3l-33.4-16V722.5l0.2-1.6-0.2 0.1-1.9 0.7-1.8 0.7-1.8 0.7-1.8 0.7-1.7 0.8-1.7 0.8-1.7 0.8-1.6 0.8-1.6 0.8-1.6 0.8-1.6 0.8-1.5 0.8-1.5 0.8-1.5 0.9-1.4 0.9-1.4 0.9-1.4 0.9-1.4 0.9-1.3 0.9-1.3 0.9-1.3 0.9-1.3 0.9-1.3 0.9-1.2 1-1.2 1-1.2 1-1.2 1-1.2 1-1.1 1-1.1 1-1.1 1-1.1 1-1.1 1.1-1.1 1.1-1 1.1-1 1.1-1 1.1-1 1.1-1 1.1-1 1.1-1 1.1-0.9 1.2-0.9 1.2-0.9 1.2-0.9 1.2-0.9 1.2-0.9 1.2-0.9 1.2-0.9 1.3-0.9 1.3-0.9 1.3-0.8 1.3-0.8 1.3-0.8 1.3-0.8 1.3-0.8 1.3-0.8 1.4-0.8 1.4-0.8 1.4-0.8 1.4-0.8 1.4-0.8 1.4-0.8 1.4-0.8 1.4-0.8 1.5-0.7 1.5-0.5 1-17.3-15.7c-9-9-17.6-18.5-25.8-28.3l-7.5-10.1 0.7-1.2 1.2-1.9 1.2-1.9 1.2-1.9 1.2-1.9 1.3-1.9 1.3-1.9 1.3-1.8 1.3-1.8 1.3-1.8 1.4-1.8 1.4-1.8 1.4-1.8 1.4-1.8 1.5-1.8 1.5-1.8 1.5-1.8 1.5-1.8 1.6-1.7 1.6-1.7 1.6-1.7 1.7-1.7 1.7-1.7 1.7-1.7 1.7-1.7 1.8-1.7 1.8-1.6 1.8-1.6 1.9-1.6 1.9-1.6 1.9-1.6 1.9-1.5 2-1.5 2-1.5 2-1.5 2.1-1.5 2.1-1.4 2.1-1.4 2.2-1.4 2.2-1.4 2.2-1.4 2.2-1.3 2.3-1.3 2.3-1.3 2.3-1.3 2.4-1.2 2.4-1.2 2.4-1.2 2.5-1.2 2.5-1.1 2.5-1.1 2.5-1.1 2.6-1.1 2.6-1 2.6-1 2.7-1 2.7-1 2.7-0.9 5.4-1.7 3-0.9 2.9-0.8 2.9-0.8 3-0.8 3-0.8 3.1-0.8 3.1-0.8 3.2-0.7 3.2-0.7 3.3-0.7 3.3-0.7 3.3-0.7 3.4-0.7 3.4-0.7 3.5-0.6 3.5-0.6 3.6-0.6 3.6-0.6 3.6-0.6 3.7-0.6 3.7-0.6 3.8-0.5 3.8-0.5 3.8-0.5 3.9-0.5 3.9-0.5 3.9-0.5 3.9-0.5 4-0.4 4-0.4 4-0.4 4.1-0.4 4.1-0.4 4.1-0.4 4.1-0.4 4.1-0.3 4.2-0.3 4.2-0.3 4.2-0.3 4.2-0.3 4.2-0.3 4.2-0.3 4.2-0.2 4.2-0.2 4.3-0.2 4.3-0.2 4.3-0.2 4.3-0.2 4.3-0.2 4.3-0.1 4.3-0.1 4.3-0.1 4.3-0.1 4.3-0.1 4.3-0.1h8.6l3.8-0.1z" fill="#E6E5E5" p-id="1602"></path><path d="M194.2 607.6l0.5 1.8 0.2 1.8-0.1 1.8-0.4 1.7-0.6 1.6-0.9 1.5-1.1 1.4-1.3 1.2-1.5 1-1.7 0.8-1.8 0.5-1.8 0.2-1.8-0.1-1.7-0.4-1.7-0.6-1.5-0.9-1.4-1.1-1.2-1.3-1-1.5-0.8-1.7-1-2.9-1-2.9-0.9-2.9-0.9-2.9-0.9-2.9-0.9-2.9-0.9-2.9-0.8-2.9-0.8-2.9-0.8-2.9-0.8-2.9-0.7-2.9-0.7-2.9-0.7-2.9-0.7-2.9-0.6-2.9-0.6-2.9-0.6-2.9-0.6-2.9-0.5-2.9-0.5-2.9-0.5-2.9-0.5-2.9-0.4-3-0.4-3-0.4-3-0.4-3-0.4-3-0.3-3-0.3-3-0.3-3-0.3-3-0.2-3-0.2-3-0.2-3-0.2-3-0.1-3-0.1-3-0.1-3-0.1-3v-15l0.1-3 0.1-3 0.1-3 0.1-3 0.2-3 0.2-3 0.2-3 0.2-3 0.3-3 0.3-3 0.3-3 0.3-3 0.4-2.9 0.4-2.9 0.4-2.9 0.4-2.9 0.4-2.9 0.5-2.9 0.5-2.9 0.5-2.9 0.5-2.9 0.6-2.9 0.6-2.9 0.6-2.9 0.6-2.9 0.7-2.9 0.7-2.9 0.7-2.9 0.7-2.9 0.7-2.9 0.8-2.9 0.8-2.9 0.8-2.9 0.8-2.9 0.9-2.9 0.9-2.9 0.9-2.8 0.9-2.8 1-2.8 1-2.8 1-2.8 1-2.8 1-2.8 1.1-2.8 1.1-2.8 1.1-2.8 1.1-2.8 1.2-2.8 1.2-2.8 1.2-2.8 1.2-2.8 1.3-2.7 1.3-2.7 2.6-5.4 1.4-2.8 1.4-2.7 1.4-2.7 1.4-2.7 1.4-2.7 1.5-2.6 1.5-2.6 1.5-2.6 1.5-2.6 1.5-2.6 1.6-2.6 1.6-2.6 1.6-2.5 1.6-2.5 1.6-2.5 1.6-2.5 1.7-2.5 1.7-2.5 1.7-2.5 1.7-2.4 1.7-2.4 1.8-2.4 1.8-2.4 1.8-2.4 1.8-2.4 1.8-2.4 1.9-2.3 1.9-2.3 1.9-2.3 1.9-2.3 1.9-2.3 1.9-2.3 2-2.2 2-2.2 2-2.2 2-2.2 2-2.2 2-2.2 2.1-2.1 2.1-2.1 2.1-2.1 2.1-2.1 2.1-2.1 2.1-2.1 2.2-2 2.2-2 2.2-2 2.2-2 2.2-2 2.2-2 2.3-1.9 2.3-1.9 2.3-1.9 2.3-1.9 2.3-1.9 2.3-1.9 2.3-1.8 2.4-1.8 2.4-1.8 2.4-1.8 2.4-1.8 2.4-1.7 2.4-1.7 2.4-1.7 2.5-1.7 2.5-1.7 2.5-1.6 2.5-1.6 2.5-1.6 2.5-1.6 2.5-1.6 2.6-1.5 2.6-1.5 2.6-1.5 2.6-1.5 2.6-1.5 2.6-1.4 2.6-1.4 2.6-1.4 2.7-1.4 2.7-1.4 2.7-1.3 2.7-1.3 2.7-1.3 2.7-1.3 2.7-1.3 2.7-1.2 2.8-1.2 2.8-1.2 2.8-1.2 2.8-1.2 2.8-1.1 2.8-1.1 2.8-1.1 2.8-1.1 2.8-1 2.8-1 2.9-1 5.7-1.9 3.7-0.6 3.5 0.6 3.2 1.6 2.6 2.5 1.7 3.3 0.6 3.6-0.6 3.5-1.6 3.2-2.5 2.5-3.3 1.7-5.4 1.8-2.7 0.9-2.7 1-2.7 1-2.7 1-2.6 1-2.6 1-2.6 1.1-2.6 1.1-2.6 1.1-2.6 1.1-2.6 1.1-2.6 1.2-2.6 1.2-2.5 1.2-2.5 1.2-2.5 1.2-2.5 1.3-2.5 1.3-2.5 1.3-2.5 1.3-2.5 1.3-2.5 1.4-2.4 1.4-2.4 1.4-2.4 1.4-2.4 1.4-2.4 1.5-2.4 1.5-2.4 1.5-2.4 1.5-2.3 1.5-2.3 1.5-2.3 1.6-2.3 1.6-2.3 1.6-2.3 1.6-2.3 1.6-2.3 1.7-2.2 1.7-2.2 1.7-2.2 1.7-2.2 1.7-2.2 1.7-2.2 1.8-2.2 1.8-2.1 1.8-2.1 1.8-2.1 1.8-2.1 1.8-2.1 1.9-2.1 1.9-2.1 1.9-2 1.9-2 1.9-2 1.9-2 2-2 2-2 2-2 2-1.9 2-1.9 2-1.9 2-1.9 2.1-1.9 2.1-1.9 2.1-1.8 2.1-1.8 2.1-1.8 2.1-1.8 2.2-1.8 2.2-1.8 2.2-1.7 2.2-1.7 2.2-1.7 2.2-1.7 2.2-1.7 2.3-1.7 2.3-1.6 2.3-1.6 2.3-1.6 2.3-1.6 2.3-1.6 2.3-1.5 2.4-1.5 2.4-1.5 2.4-1.5 2.4-1.5 2.4-1.5 2.4-1.4 2.4-1.7 2.8-1.4 2.5-1.4 2.5-1.4 2.5-1.3 2.5-1.3 2.5-1.3 2.5-1.3 2.5-1.2 2.5-2.5 5.2-1.2 2.6-1.2 2.6-1.2 2.6-1.1 2.6-1.1 2.6-1.1 2.6-1.1 2.6-1.1 2.6-1 2.6-1 2.6-1 2.6-1 2.6-0.9 2.7-0.9 2.7-0.9 2.7-0.9 2.7-0.9 2.7-0.8 2.7-0.8 2.7-0.8 2.7-0.8 2.7-0.7 2.7-0.7 2.7-0.7 2.7-0.7 2.7-0.7 2.7-0.6 2.7-0.6 2.7-0.6 2.7-0.6 2.7-0.6 2.7-0.5 2.7-0.5 2.7-0.5 2.7-0.5 2.8-0.4 2.8-0.4 2.8-0.4 2.8-0.4 2.8-0.4 2.8-0.3 2.8-0.3 2.8-0.3 2.8-0.3 2.8-0.2 2.8-0.2 2.8-0.2 2.8-0.2 2.8-0.2 2.8-0.1 2.8-0.1 2.8-0.1 2.8-0.1 2.8v14l0.1 2.8 0.1 2.8 0.1 2.8 0.1 2.8 0.2 2.8 0.2 2.8 0.2 2.8 0.2 2.8 0.2 2.8 0.3 2.8 0.3 2.8 0.3 2.8 0.3 2.8 0.4 2.8 0.4 2.8 0.4 2.8 0.4 2.8 0.4 2.8 0.5 2.8 0.5 2.8 0.5 2.8 0.5 2.8 0.6 2.8 0.6 2.8 0.6 2.7 0.6 2.7 0.6 2.7 0.7 2.7 0.7 2.7 0.7 2.7 0.7 2.7 0.8 2.7 0.8 2.7 0.8 2.7 0.8 2.7 0.8 2.7 0.9 2.7 0.9 2.7 0.9 2.7 1.1 1.9zM181 653c0-7.7 6.3-14 14-14s14 6.3 14 14-6.3 14-14 14-14-6.3-14-14zM468.8 178.7c-0.4-0.6-1.1-1-1.9-0.9l-8.3 1-5.5-6.3c-0.5-0.6-1.3-0.8-2-0.6-0.7 0.2-1.3 0.8-1.4 1.5l-1.6 8.2-7.7 3.3c-0.7 0.3-1.1 1-1.2 1.7 0 0.7 0.4 1.5 1 1.8l7.3 4.1 0.8 8.3c0.1 0.7 0.6 1.4 1.3 1.7 0.7 0.3 1.5 0.1 2-0.4l6.2-5.7 8.2 1.8c0.3 0.1 0.6 0.1 0.9 0 0.4-0.1 0.8-0.3 1-0.7 0.5-0.6 0.6-1.4 0.3-2.1l-3.5-7.6 4.3-7.2c0.2-0.5 0.2-1.3-0.2-1.9zM805.8 297.3c-0.2-0.7-0.8-1.2-1.6-1.4l-8.2-1.2-3.7-7.6c-0.3-0.7-1-1.1-1.8-1.1s-1.4 0.4-1.8 1.1l-3.7 7.6-8.2 1.2c-0.7 0.1-1.4 0.6-1.6 1.4-0.2 0.7 0 1.5 0.5 2l6 5.9-1.4 8.3c-0.1 0.8 0.2 1.5 0.8 1.9 0.6 0.4 1.4 0.5 2.1 0.2l7.4-3.9 7.4 3.9c0.3 0.2 0.6 0.2 0.9 0.2 0.4 0 0.8-0.1 1.2-0.4 0.6-0.4 0.9-1.2 0.8-1.9l-1.4-8.3 6-5.9c0.3-0.5 0.5-1.3 0.3-2zM550.8 826.9c-0.2-0.7-0.8-1.2-1.6-1.3l-8.2-1.2-3.7-7.3c-0.3-0.7-1-1.1-1.8-1.1s-1.4 0.4-1.8 1.1l-3.7 7.3-8.2 1.2c-0.7 0.1-1.4 0.6-1.6 1.3-0.2 0.7 0 1.5 0.5 2l6 5.7-1.4 8.1c-0.1 0.7 0.2 1.5 0.8 1.9 0.6 0.4 1.4 0.5 2.1 0.1l7.4-3.8 7.4 3.8c0.3 0.1 0.6 0.2 0.9 0.2 0.4 0 0.8-0.1 1.2-0.4 0.6-0.4 0.9-1.2 0.8-1.9l-1.4-8.1 6-5.7c0.3-0.4 0.5-1.2 0.3-1.9z" fill="#FFFFFF" p-id="1603"></path><path d="M247.4 576.2c0-0.7-0.4-1.4-1.1-1.8l-7.4-3.8-1.1-8.3c-0.1-0.7-0.6-1.4-1.3-1.6-0.7-0.2-1.5-0.1-2 0.5l-6 5.9-8.2-1.6c-0.7-0.1-1.5 0.2-1.9 0.7-0.5 0.6-0.5 1.4-0.2 2.1l3.8 7.5-4 7.3c-0.4 0.7-0.3 1.5 0.1 2.1 0.4 0.6 1.2 0.9 1.9 0.8l8.3-1.3 5.7 6.1c0.2 0.2 0.5 0.4 0.8 0.5 0.4 0.1 0.8 0.1 1.2 0 0.7-0.2 1.2-0.8 1.4-1.6l1.4-8.3 7.6-3.6c0.5-0.1 1-0.8 1-1.6zM800.8 654.3c-0.2-0.7-0.8-1.2-1.6-1.4l-8.2-1.2-3.7-7.6c-0.3-0.7-1-1.1-1.8-1.1s-1.4 0.4-1.8 1.1l-3.7 7.6-8.2 1.2c-0.7 0.1-1.4 0.6-1.6 1.4-0.2 0.7 0 1.5 0.5 2l6 5.9-1.4 8.3c-0.1 0.8 0.2 1.5 0.8 1.9 0.6 0.4 1.4 0.5 2.1 0.2l7.4-3.9 7.4 3.9c0.3 0.2 0.6 0.2 0.9 0.2 0.4 0 0.8-0.1 1.2-0.4 0.6-0.4 0.9-1.2 0.8-1.9l-1.4-8.3 6-5.9c0.3-0.5 0.5-1.3 0.3-2z" fill="#FFFFFF" p-id="1604"></path><path d="M355 484.5c0-80.4 65.4-145.5 146-145.5s146 65.1 146 145.5S581.6 630 501 630s-146-65.1-146-145.5z" fill="#E6E5E5" p-id="1605"></path><path d="M379 501c0-54.7 55.3-99 123.5-99S626 446.3 626 501s-55.3 99-123.5 99S379 555.7 379 501z" fill="#CFCECE" p-id="1606"></path><path d="M386 501c0-49.7 52.2-90 116.5-90S619 451.3 619 501s-52.2 90-116.5 90S386 550.7 386 501z" fill="#5EC8FA" p-id="1607"></path><path d="M534 490c0-20.4 11.6-37 26-37s26 16.6 26 37-11.6 37-26 37-26-16.6-26-37z" fill="#9EDEFC" p-id="1608"></path><path d="M589.7 590.7l1.2-1.5 1.4-1.3 1.6-1.1 1.8-0.8 1.9-0.6 2-0.3 2-0.1 2 0.2 2 0.5 1.9 0.8 1.7 1 1.5 1.2 1.2 1.4 1 1.5 0.7 1.6 0.4 1.7 0.1 1.8-0.3 1.8-0.6 1.7-0.9 1.7-0.7 1.1-0.7 1-0.7 1-0.7 1-0.7 1-0.7 1-0.7 1-0.7 0.9-0.8 0.9-0.8 0.9-0.8 0.9-0.8 0.9-0.8 0.9-0.8 0.9-0.8 0.9-0.8 0.9-0.8 0.9-0.8 0.9-0.9 0.9-0.9 0.9-0.9 0.8-0.9 0.8-0.9 0.8-0.9 0.8-0.9 0.8-0.9 0.8-0.9 0.8-0.9 0.8-0.9 0.8-1 0.8-1 0.8-1 0.8-1 0.7-1 0.7-1 0.7-1 0.7-1 0.7-1 0.7-1 0.7-1 0.7-1 0.7-1 0.7-1.1 0.6-1.1 0.6-1.1 0.6-1.1 0.6-1.1 0.6-1.1 0.6-1.1 0.6-1.1 0.6-1.1 0.6-1.1 0.6-1.1 0.6-1.1 0.5-1.1 0.5-1.1 0.5-1.4 0.6-1.2 0.5-1.2 0.5-1.2 0.5-1.2 0.5-1.2 0.5-1.2 0.5-1.2 0.4-1.2 0.4-1.2 0.4-1.2 0.4-1.2 0.4-1.2 0.4-1.2 0.4-1.2 0.4-1.2 0.4-1.2 0.3-1.2 0.3-1.2 0.3-1.3 0.3-1.3 0.3-1.3 0.3-1.3 0.3-1.3 0.3-1.3 0.3-1.3 0.3-1.3 0.2-1.3 0.2-1.3 0.2-1.3 0.2-1.3 0.2-1.3 0.2-1.3 0.2-1.3 0.2-1.3 0.1-1.3 0.1-1.3 0.1-1.3 0.1-1.3 0.1-1.3 0.1-1.3 0.1-1.3 0.1-2.6 0.1h-9.2l-1.3-0.1-1.3-0.1-1.3-0.1-1.3-0.1-1.3-0.1-1.3-0.1-1.3-0.1-1.3-0.1-1.3-0.1-1.3-0.2-1.3-0.2-1.3-0.2-1.3-0.2-1.3-0.2-1.3-0.2-1.3-0.2-1.3-0.2-1.3-0.3-1.3-0.3-1.3-0.3-1.3-0.3-1.3-0.3-1.2-0.3-1.2-0.3-1.2-0.3-1.2-0.3-1.2-0.3-1.2-0.4-1.2-0.4-1.2-0.4-1.2-0.4-1.2-0.4-1.2-0.4-1.2-0.4-1.2-0.4-1.2-0.4-1.2-0.5-1.2-0.5-1.2-0.5-1.2-0.5-1.2-0.5-1.2-0.5-1.1-0.5-1.1-0.5-1.1-0.5-1.1-0.5-1.1-0.6-1.1-0.6-1.1-0.6-1.1-0.6-1.1-0.6-1.1-0.6-1.1-0.6-1.1-0.6-1.1-0.6-1.1-0.6-1.1-0.7-1-0.7-1-0.7-1-0.7-1-0.7-1-0.7-1-0.7-1-0.7-1-0.7-1-0.7-1-0.7-1-0.8-1-0.8-1-0.8-0.9-0.8-0.9-0.8-0.9-0.8-0.9-0.8-0.9-0.8-0.9-0.8-0.9-0.8-0.9-0.8-0.9-0.8-0.9-0.9-0.9-0.9-0.9-0.9-0.8-0.9-0.8-0.9-0.8-0.9-0.8-0.9-0.8-0.9-0.8-0.9-0.8-0.9-0.8-0.9-0.8-1-1.5-1.9-1.7-3.3-0.4-3.5 0.8-3.4 2-3.1 3.1-2.5 3.8-1.5 4-0.4 3.9 0.7 3.5 1.7 2.8 2.7 1.2 1.6 0.6 0.8 0.6 0.8 0.6 0.7 0.6 0.7 0.6 0.7 0.6 0.7 0.7 0.7 0.7 0.7 0.7 0.7 0.7 0.7 0.7 0.7 0.7 0.7 0.7 0.7 0.7 0.7 0.7 0.7 0.7 0.7 0.7 0.6 0.7 0.6 0.7 0.6 0.7 0.6 0.8 0.6 0.8 0.6 0.8 0.6 0.8 0.6 0.8 0.6 0.8 0.6 0.8 0.6 0.8 0.6 0.8 0.6 0.8 0.6 0.8 0.5 0.8 0.5 0.8 0.5 0.8 0.5 0.8 0.5 0.8 0.5 0.9 0.5 0.9 0.5 0.9 0.5 0.9 0.5 0.9 0.5 0.9 0.5 0.9 0.5 0.9 0.4 0.9 0.4 0.9 0.4 0.9 0.4 0.9 0.4 0.9 0.4 0.9 0.4 0.9 0.4 0.9 0.4 0.9 0.4 0.9 0.4 0.9 0.4 0.9 0.4 1 0.3 1 0.3 1 0.3 1 0.3 1 0.3 1 0.3 1 0.3 1 0.3 1 0.3 1 0.3 1 0.3 1 0.2 1 0.2 1 0.2 1 0.2 1 0.2 1 0.2 1 0.2 1 0.2 1 0.2 1 0.2 1 0.2 1 0.2 1 0.1 1 0.1 1 0.1 1 0.1 1 0.1 1 0.1 1 0.1 1 0.1 1 0.1 1 0.1 1 0.1h8.7l2.2-0.1 1.1-0.1 1.1-0.1 1.1-0.1 1-0.1 1-0.1 1-0.1 1-0.1 1-0.1 1-0.1 1-0.1 1-0.1 1-0.2 1-0.2 1-0.2 1-0.2 1-0.2 1-0.2 1-0.2 1-0.2 1-0.2 1-0.2 1-0.2 1-0.3 1-0.3 1-0.3 1-0.3 1-0.3 1-0.3 1-0.3 1-0.3 1-0.3 1-0.3 1-0.3 1-0.3 0.9-0.4 0.9-0.4 0.9-0.4 0.9-0.4 0.9-0.4 0.9-0.4 0.9-0.4 0.9-0.4 0.9-0.4 0.9-0.4 0.9-0.4 0.9-0.4 0.9-0.4 0.9-0.5 0.9-0.5 0.9-0.5 0.9-0.5 0.9-0.5 0.9-0.5 0.9-0.5 0.8-0.5 0.8-0.5 0.8-0.5 0.8-0.5 0.8-0.5 0.8-0.5 0.8-0.6 0.8-0.6 0.8-0.6 0.8-0.6 0.8-0.6 0.8-0.6 0.8-0.6 0.8-0.6 0.8-0.6 0.8-0.6 0.7-0.6 0.7-0.6 0.7-0.6 0.7-0.6 0.7-0.7 0.7-0.7 0.7-0.7 0.7-0.7 0.7-0.7 0.7-0.7 0.7-0.7 0.7-0.7 0.7-0.7 0.6-0.7 0.6-0.7 0.6-0.7 0.6-0.7 0.6-0.7 0.6-0.7 0.6-0.8 0.6-0.8 0.6-0.8 0.6-0.8 0.6-0.8 0.6-0.8 0.6-0.8 0.5-0.8 1-0.5z" fill="#ADB9CA" p-id="1609"></path><path d="M607 604l1.7-2.1 2-1.8 2.3-1.5 2.5-1.2 2.6-0.8 2.7-0.5 2.8-0.1 2.8 0.3 2.8 0.7 2.7 1.1 2.4 1.5 2.1 1.7 1.7 2 1.3 2.2 0.9 2.3 0.5 2.4 0.1 2.5-0.3 2.5-0.8 2.4-1.3 2.3-0.9 1.3-0.9 1.2-0.9 1.2-0.9 1.2-0.9 1.2-0.9 1.2-0.9 1.2-0.9 1.2-0.9 1.2-1 1.2-1 1.2-1 1.2-1 1.1-1 1.1-1 1.1-1 1.1-1 1.1-1.1 1.1-1.1 1.1-1.1 1.1-1.1 1.1-1.1 1-1.1 1-1.1 1-1.1 1-1.1 1-1.2 1-1.2 1-1.2 1-1.2 1-1.2 1-1.2 0.9-1.2 0.9-1.1 0.9-1.2 0.9-1.3 0.9-1.3 0.9-1.3 0.9-1.3 0.9-1.3 0.8-1.3 0.8-1.3 0.8-1.3 0.8-1.3 0.8-1.3 0.8-1.3 0.8-1.4 0.8-1.4 0.8-1.4 0.7-1.4 0.7-1.4 0.7-1.4 0.7-1.4 0.7-1.4 0.7-1.4 0.7-1.4 0.7-1.4 0.6-1.4 0.6-1.4 0.6-1.5 0.6-1.5 0.6-1.5 0.6-1.5 0.6-1.5 0.6-1.5 0.5-1.5 0.5-1.5 0.5-1.5 0.5-1.5 0.5-1.5 0.5-1.5 0.5-1.5 0.5-1.5 0.4-1.5 0.4-1.6 0.4-1.6 0.4-1.6 0.3-1.6 0.4-1.6 0.4-1.6 0.3-1.6 0.3-1.6 0.3-1.6 0.3-1.6 0.3-1.6 0.3-1.6 0.3-1.6 0.2-1.6 0.2-1.6 0.2-1.6 0.2-1.6 0.2-1.6 0.2-1.6 0.2-1.6 0.1-1.6 0.1-1.7 0.1-1.7 0.1-1.7 0.1-3.2 0.1H494.6l-1.7-0.1-1.6-0.1-1.6-0.1-1.6-0.1-1.6-0.1-1.6-0.1-1.6-0.1-1.6-0.2-1.6-0.2-1.6-0.2-1.6-0.2-1.6-0.2-1.6-0.2-1.6-0.2-1.6-0.3-1.6-0.3-1.6-0.3-1.6-0.3-1.6-0.3-1.6-0.3-1.6-0.3-1.6-0.4-1.6-0.4-1.6-0.4-1.6-0.4-1.6-0.4-1.5-0.4-1.5-0.4-1.5-0.4-1.5-0.5-1.5-0.5-1.5-0.5-1.5-0.5-1.5-0.5-1.5-0.5-1.5-0.5-1.5-0.6-1.5-0.6-1.5-0.6-1.5-0.6-1.5-0.6-1.5-0.6-1.4-0.6-1.4-0.6-1.4-0.7-1.4-0.7-1.4-0.7-1.4-0.7-1.4-0.7-1.4-0.7-1.4-0.7-1.4-0.7-1.4-0.8-1.4-0.8-1.3-0.8-1.3-0.8-1.3-0.8-1.3-0.8-1.3-0.8-1.3-0.8-1.3-0.8-1.3-0.9-1.3-0.9-1.3-0.9-1.3-0.9-1.2-0.9-1.2-0.9-1.2-0.9-1.2-0.9-1.2-1-1.2-1-1.2-1-1.2-1-1.2-1-1.2-1-1.1-1-1.1-1-1.1-1-1.1-1.1-1.1-1.1-1.1-1.1-1.1-1.1-1.1-1.1-1.1-1.1-1-1.1-1-1.1-1-1.1-1-1.1-1-1.2-1-1.2-1-1.2-1-1.2-1.8-2.3-2.4-4.6-0.6-4.9 1.1-4.8 2.7-4.3 4.3-3.4 5.3-2.1 5.6-0.5 5.5 1 4.9 2.4 4 3.7 1.5 1.9 0.7 0.9 0.7 0.9 0.8 0.9 0.8 0.9 0.8 0.9 0.8 0.9 0.8 0.9 0.8 0.9 0.8 0.9 0.8 0.8 0.8 0.8 0.8 0.8 0.8 0.8 0.9 0.8 0.9 0.8 0.9 0.8 0.9 0.8 0.9 0.8 0.9 0.8 0.9 0.8 0.9 0.8 0.9 0.7 0.9 0.7 0.9 0.7 0.9 0.7 1 0.7 1 0.7 1 0.7 1 0.7 1 0.7 1 0.7 1 0.7 1 0.6 1 0.6 1 0.6 1 0.6 1 0.6 1 0.6 1 0.6 1.1 0.6 1.1 0.6 1.1 0.6 1.1 0.6 1.1 0.5 1.1 0.5 1.1 0.5 1.1 0.5 1.1 0.5 1.1 0.5 1.1 0.5 1.1 0.5 1.1 0.5 1.1 0.5 1.1 0.4 1.1 0.4 1.1 0.4 1.2 0.4 1.2 0.4 1.2 0.4 1.2 0.4 1.2 0.4 1.2 0.4 1.2 0.4 1.2 0.3 1.2 0.3 1.2 0.3 1.2 0.3 1.2 0.3 1.2 0.3 1.2 0.3 1.2 0.3 1.2 0.3 1.2 0.2 1.2 0.2 1.2 0.2 1.2 0.2 1.2 0.2 1.2 0.2 1.2 0.2 1.2 0.2 1.2 0.2 1.3 0.2 1.3 0.1 1.3 0.1 1.3 0.1 1.3 0.1 1.3 0.1 1.3 0.1 1.3 0.1 1.3 0.1 1.3 0.1h9l2.7-0.1 1.3-0.1 1.3-0.1 1.3-0.1 1.3-0.1 1.3-0.1 1.3-0.1 1.3-0.1 1.3-0.1 1.3-0.2 1.3-0.2 1.3-0.2 1.2-0.2 1.2-0.2 1.2-0.2 1.2-0.2 1.2-0.2 1.2-0.2 1.2-0.3 1.2-0.3 1.2-0.3 1.2-0.3 1.2-0.3 1.2-0.3 1.2-0.3 1.2-0.3 1.2-0.3 1.2-0.3 1.2-0.4 1.2-0.4 1.2-0.4 1.2-0.4 1.2-0.4 1.2-0.4 1.2-0.4 1.1-0.4 1.1-0.4 1.1-0.5 1.1-0.5 1.1-0.5 1.1-0.5 1.1-0.5 1.1-0.5 1.1-0.5 1.1-0.5 1.1-0.5 1.1-0.5 1.1-0.5 1.1-0.6 1.1-0.6 1.1-0.6 1.1-0.6 1-0.6 1-0.6 1-0.6 1-0.6 1-0.6 1-0.6 1-0.6 1-0.7 1-0.7 1-0.7 1-0.7 1-0.7 1-0.7 1-0.7 0.9-0.7 0.9-0.7 0.9-0.7 0.9-0.7 0.9-0.8 0.9-0.8 0.9-0.8 0.9-0.8 0.9-0.8 0.9-0.8 0.9-0.8 0.9-0.8 0.8-0.8 0.8-0.8 0.8-0.8 0.8-0.8 0.8-0.8 0.8-0.9 0.8-0.9 0.8-0.9 0.8-0.9 0.8-0.9 0.7-0.9 0.7-0.9 0.7-0.9 0.7-0.9 0.7-0.9 0.7-0.9 0.7-0.9 0.7-1 0.7-1 0.7-1 0.2-0.8zM394 769.2c0-10.6 8.6-19.2 19.2-19.2h190.7c10.6 0 19.2 8.6 19.2 19.2v76.7c0 10.6-8.6 19.2-19.2 19.2H413.2c-10.6 0-19.2-8.6-19.2-19.2v-76.7z" fill="#8497B0" p-id="1610"></path><path d="M409 777.5c0-8 6.5-14.5 14.5-14.5h169c8 0 14.5 6.5 14.5 14.5v58c0 8-6.5 14.5-14.5 14.5h-169c-8 0-14.5-6.5-14.5-14.5v-58z" fill="#D6DCE5" p-id="1611"></path><path d="M433 807c0-11.6 9.4-21 21-21s21 9.4 21 21-9.4 21-21 21-21-9.4-21-21zM492 807c0-11.6 9.4-21 21-21s21 9.4 21 21-9.4 21-21 21-21-9.4-21-21zM552 807c0-11.6 9.4-21 21-21s21 9.4 21 21-9.4 21-21 21-21-9.4-21-21z" fill="#F97B6E" p-id="1612"></path><path d="M498 675h20v88h-20z" fill="#8497B0" p-id="1613"></path></svg>